PathFileType	4	(X/Y/Z)	/Users/itak/Documents/Research/Walk-IL/dataset/trc/00525_00183.trc
DataRate	CameraRate	NumFrames	NumMarkers	Units	OrigDataRate	OrigDataStartFrame	OrigNumFrames
100.000000	100.000000	4	53	mm	100.000000	139	559
Frame#	Time	RPSI			LPSI			L3			STRN			T10			C7			CLAV			RBAK			LBAK			LSHO			LUPA			LAEL			LAOL			LWTS			LWPS			LFRA			LIFD			LHPS			LHTS			RSHO			RUPA			RAEL			RAOL			RWTS			RWPS			RFRA			RIFD			RHTS			RHPS			RBHD			LFHD			RFHD			LBHD			LHIP			RHIP			RASI			LASI			LKNE			LTHI			LANK			LTIP			LTOE			LMT1			LMT5			LHEE			RKNE			RTHI			RANK			RTIP			RTOE			RMT1			RMT5			RHEE			
		X1	Y1	Z1	X2	Y2	Z2	X3	Y3	Z3	X4	Y4	Z4	X5	Y5	Z5	X6	Y6	Z6	X7	Y7	Z7	X8	Y8	Z8	X9	Y9	Z9	X10	Y10	Z10	X11	Y11	Z11	X12	Y12	Z12	X13	Y13	Z13	X14	Y14	Z14	X15	Y15	Z15	X16	Y16	Z16	X17	Y17	Z17	X18	Y18	Z18	X19	Y19	Z19	X20	Y20	Z20	X21	Y21	Z21	X22	Y22	Z22	X23	Y23	Z23	X24	Y24	Z24	X25	Y25	Z25	X26	Y26	Z26	X27	Y27	Z27	X28	Y28	Z28	X29	Y29	Z29	X30	Y30	Z30	X31	Y31	Z31	X32	Y32	Z32	X33	Y33	Z33	X34	Y34	Z34	X35	Y35	Z35	X36	Y36	Z36	X37	Y37	Z37	X38	Y38	Z38	X39	Y39	Z39	X40	Y40	Z40	X41	Y41	Z41	X42	Y42	Z42	X43	Y43	Z43	X44	Y44	Z44	X45	Y45	Z45	X46	Y46	Z46	X47	Y47	Z47	X48	Y48	Z48	X49	Y49	Z49	X50	Y50	Z50	X51	Y51	Z51	X52	Y52	Z52	X53	Y53	Z53	

140	1.39	-1200.773803710938	975.8707885742188	-432.1175842285156	-1141.734008789062	973.0971069335938	-540.259765625	-1172.759887695312	1039.723266601562	-491.5745849609375	-958.951416015625	1207.271728515625	-399.2171936035156	-1184.28271484375	1145.4736328125	-492.9538879394531	-1142.299438476562	1375.977905273438	-473.6560974121094	-994.6417236328125	1301.866943359375	-415.283203125	-1218.120239257812	1254.206176757812	-412.4657897949219	-1132.277465820312	1321.660888671875	-561.6837158203125	-1018.257019042969	1368.061401367188	-597.14208984375	-1012.213073730469	1241.199829101562	-657.7044067382812	-993.7908325195312	1030.775268554688	-675.5081176757812	-1087.694213867188	1023.054809570312	-638.3209228515625	-923.0538940429688	845.1625366210938	-600.765380859375	-982.3947143554688	807.2235107421875	-663.6859741210938	-977.2133178710938	947.7508544921875	-666.826904296875	-925.1890258789062	687.3512573242188	-585.407470703125	-961.1552734375	753.2706298828125	-648.1607666015625	-908.1884155273438	765.6544799804688	-612.5887451171875	-1147.689819335938	1372.560546875	-316.6171875	-1186.350708007812	1305.781494140625	-269.3160705566406	-1186.016235351562	1037.78369140625	-222.1314392089844	-1225.729248046875	1019.929565429688	-272.3399963378906	-1072.482177734375	838.7501831054688	-235.6916809082031	-1153.20263671875	813.956787109375	-199.7273406982422	-1181.046264648438	983.086181640625	-213.6273956298828	-1066.927368164062	678.4004516601562	-230.8124084472656	-1058.582641601562	745.7496337890625	-209.0539245605469	-1128.522338867188	740.759521484375	-196.0829925537109	-1144.840698242188	1532.332275390625	-388.116455078125	-965.8615112304688	1599.358276367188	-450.4698181152344	-1029.372924804688	1591.041137695312	-339.9321594238281	-1078.617797851562	1538.711547851562	-533.1087036132812	-982.9599609375	894.3924560546875	-600.32421875	-1170.531005859375	876.2293090820312	-272.9201965332031	-1049.197509765625	916.4935302734375	-283.7132263183594	-937.8070678710938	927.0684814453125	-497.4261779785156	-1009.804321289062	470.5489196777344	-556.37353515625	-980.9982299804688	627.404296875	-573.1174926757812	-1124.13427734375	50.69827270507812	-588.1116943359375	-1044.227783203125	319.8514099121094	-571.4559936523438	-975.5294189453125	41.3858528137207	-444.6495361328125	-1059.512084960938	44.49266052246094	-450.8731689453125	-1023.76513671875	48.42375564575195	-545.6837768554688	-1194.13134765625	47.71686172485352	-553.9225463867188	-1165.98095703125	487.3443908691406	-286.9579162597656	-1154.028686523438	747.56396484375	-255.1167602539062	-1233.720092773438	47.88224029541016	-328.0714416503906	-1166.83056640625	341.1268920898438	-297.7363586425781	-1031.83544921875	50.15187835693359	-308.2612609863281	-1083.211547851562	53.17801284790039	-363.5311584472656	-1130.94970703125	45.43363952636719	-278.663818359375	-1268.638916015625	40.64709854125977	-390.13037109375	
141	1.4	-1199.744995117188	975.8653564453125	-433.0694885253906	-1140.982788085938	973.1103515625	-541.3302612304688	-1171.224853515625	1040.049438476562	-492.4229125976562	-957.3097534179688	1206.912109375	-400.4865112304688	-1182.627075195312	1145.68017578125	-493.7257080078125	-1140.349731445312	1376.130981445312	-474.1902770996094	-992.8507080078125	1301.58984375	-416.2224426269531	-1216.303100585938	1254.391967773438	-413.0581665039062	-1130.5400390625	1321.984497070312	-562.349609375	-1016.506164550781	1368.2841796875	-597.9522094726562	-1011.021850585938	1241.454223632812	-658.71875	-993.2159423828125	1031.044555664062	-676.9744262695312	-1086.917846679688	1023.474853515625	-639.3524780273438	-922.478271484375	845.1808471679688	-602.8092041015625	-982.4285278320312	807.4913940429688	-665.2249755859375	-976.8529663085938	947.9371948242188	-668.4067993164062	-924.288330078125	687.503662109375	-587.3570556640625	-961.27734375	753.4605712890625	-649.9111938476562	-907.8272094726562	765.790283203125	-614.8591918945312	-1145.441040039062	1372.40283203125	-317.142822265625	-1184.0751953125	1305.611572265625	-269.8415832519531	-1183.86962890625	1037.598510742188	-222.7570190429688	-1223.768798828125	1019.800476074219	-272.8569946289062	-1070.69873046875	838.358642578125	-236.5425109863281	-1151.44287109375	813.8086547851562	-200.4396057128906	-1178.942993164062	982.9085083007812	-214.2708587646484	-1065.7197265625	677.9545288085938	-231.6018676757812	-1057.05029296875	745.2886962890625	-209.9163665771484	-1126.992797851562	740.539794921875	-196.7862548828125	-1142.889038085938	1531.922241210938	-388.0914306640625	-964.1940307617188	1599.451538085938	-450.6096496582031	-1027.382568359375	1590.659423828125	-339.939453125	-1076.989868164062	1538.936889648438	-533.2188720703125	-982.2227172851562	894.3631591796875	-601.7886962890625	-1169.234741210938	876.2168579101562	-273.767333984375	-1048.0107421875	916.453369140625	-285.006103515625	-936.8341064453125	926.9386596679688	-498.8072814941406	-1009.124816894531	470.3145141601562	-557.203857421875	-980.206298828125	627.2161865234375	-574.0874633789062	-1124.011352539062	50.51419448852539	-588.34619140625	-1043.484130859375	319.547119140625	-572.0235595703125	-975.581787109375	41.33851623535156	-444.6749267578125	-1059.537841796875	44.59338760375977	-450.9851379394531	-1023.674011230469	48.23144912719727	-545.8502807617188	-1194.021240234375	47.62854385375977	-554.241943359375	-1162.123779296875	487.143310546875	-287.3195190429688	-1152.155395507812	747.4537963867188	-256.00634765625	-1233.502685546875	48.14275741577148	-328.1393432617188	-1163.275024414062	340.6865539550781	-297.6498413085938	-1031.7841796875	50.05297470092773	-308.34228515625	-1083.025756835938	52.89370727539062	-363.6829223632812	-1130.790893554688	45.41817092895508	-278.8291931152344	-1268.576904296875	41.17569732666016	-390.1297912597656	
142	1.41	-1198.750244140625	975.8345336914062	-434.0874938964844	-1140.16259765625	973.092529296875	-542.4137573242188	-1169.626708984375	1040.407104492188	-493.3245239257812	-955.60302734375	1206.528930664062	-401.7230224609375	-1180.913818359375	1145.906982421875	-494.5814819335938	-1138.301147460938	1376.291381835938	-474.7756042480469	-991.0219116210938	1301.283447265625	-417.1367797851562	-1214.444702148438	1254.601318359375	-413.7393188476562	-1128.667236328125	1322.3193359375	-563.0636596679688	-1014.585510253906	1368.498657226562	-598.7491455078125	-1009.67529296875	1241.70947265625	-659.7369995117188	-992.5476684570312	1031.308959960938	-678.4684448242188	-1086.002319335938	1023.928466796875	-640.4437866210938	-921.9012451171875	845.1837768554688	-604.8377685546875	-982.4000244140625	807.7723999023438	-666.801513671875	-976.400634765625	948.124267578125	-670.003173828125	-923.38818359375	687.6305541992188	-589.329833984375	-961.3822631835938	753.6500854492188	-651.702392578125	-907.5023193359375	765.9160766601562	-617.1016845703125	-1143.154541015625	1372.244018554688	-317.7230529785156	-1181.774047851562	1305.431640625	-270.4278259277344	-1181.66650390625	1037.407348632812	-223.4259185791016	-1221.76904296875	1019.649475097656	-273.3974304199219	-1068.841552734375	837.9727783203125	-237.4659423828125	-1149.592163085938	813.6697998046875	-201.1834411621094	-1176.770874023438	982.7335205078125	-214.9538726806641	-1064.42724609375	677.5205688476562	-232.4326782226562	-1055.430297851562	744.8330078125	-210.8306274414062	-1125.363159179688	740.3302001953125	-197.5186309814453	-1140.8974609375	1531.463989257812	-388.0918273925781	-962.49267578125	1599.560668945312	-450.7055053710938	-1025.390258789062	1590.2490234375	-339.9364013671875	-1075.292114257812	1539.154052734375	-533.3311767578125	-981.460693359375	894.3382568359375	-603.2432250976562	-1168.02197265625	876.166259765625	-274.6636352539062	-1046.92138671875	916.4200439453125	-286.3111572265625	-935.8832397460938	926.7760620117188	-500.1681518554688	-1008.418273925781	470.0456848144531	-558.0707397460938	-979.3302001953125	627.0197143554688	-575.0714721679688	-1123.886962890625	50.33989334106445	-588.5866088867188	-1042.749389648438	319.2556457519531	-572.64599609375	-975.6394653320312	41.26748657226562	-444.6997680664062	-1059.556640625	44.70210647583008	-451.1127319335938	-1023.557006835938	48.01385498046875	-546.0315551757812	-1193.917724609375	47.55724716186523	-554.5474243164062	-1157.848022460938	486.9165649414062	-287.6394958496094	-1150.25830078125	747.3026733398438	-256.9163513183594	-1233.234619140625	48.52740097045898	-328.1954956054688	-1159.34521484375	340.2240905761719	-297.4219970703125	-1031.694091796875	49.92135620117188	-308.4196472167969	-1082.794799804688	52.59462356567383	-363.8325500488281	-1130.59912109375	45.41070938110352	-278.983154296875	-1268.475830078125	41.92519378662109	-390.1255798339844	
143	1.42	-1197.802001953125	975.7589111328125	-435.1746215820312	-1139.309448242188	973.0306396484375	-543.52490234375	-1167.976806640625	1040.795532226562	-494.2780456542969	-953.8505249023438	1206.112060546875	-402.9152526855469	-1179.151611328125	1146.156372070312	-495.5272827148438	-1136.153930664062	1376.45751953125	-475.4061889648438	-989.1511840820312	1300.947021484375	-418.0184631347656	-1212.547973632812	1254.833618164062	-414.5038146972656	-1126.658813476562	1322.662719726562	-563.8156127929688	-1012.487426757812	1368.692993164062	-599.5194702148438	-1008.146545410156	1241.961059570312	-660.7424926757812	-991.7642211914062	1031.559448242188	-679.9722900390625	-1084.953247070312	1024.405639648438	-641.6083984375	-921.3345336914062	845.1630249023438	-606.813720703125	-982.2904052734375	808.0549926757812	-668.411376953125	-975.8385620117188	948.3035278320312	-671.5971069335938	-922.5441284179688	687.720703125	-591.31591796875	-961.4465942382812	753.8460083007812	-653.5346069335938	-907.2140502929688	766.0228881835938	-619.2731323242188	-1140.836547851562	1372.078979492188	-318.3480834960938	-1179.45068359375	1305.23779296875	-271.0713500976562	-1179.418579101562	1037.210083007812	-224.1346893310547	-1219.735717773438	1019.472045898438	-273.9606628417969	-1066.915771484375	837.5929565429688	-238.4626617431641	-1147.65478515625	813.527587890625	-201.9657897949219	-1174.541137695312	982.5540771484375	-215.6702117919922	-1063.031005859375	677.10009765625	-233.3111877441406	-1053.721069335938	744.3826904296875	-211.7971954345703	-1123.632446289062	740.125244140625	-198.2898101806641	-1138.86669921875	1530.9560546875	-388.1254577636719	-960.754150390625	1599.691162109375	-450.7544555664062	-1023.408996582031	1589.815795898438	-339.9253234863281	-1073.519897460938	1539.356567382812	-533.4454956054688	-980.6705932617188	894.3078002929688	-604.670166015625	-1166.909912109375	876.0607299804688	-275.614013671875	-1045.9423828125	916.3912353515625	-287.6200866699219	-934.9585571289062	926.578369140625	-501.5004272460938	-1007.67578125	469.7504577636719	-558.95751953125	-978.3905639648438	626.8101806640625	-576.06787109375	-1123.763305664062	50.17275238037109	-588.8298950195312	-1042.042602539062	318.969970703125	-573.307373046875	-975.7009887695312	41.17814636230469	-444.7230834960938	-1059.5634765625	44.81655883789062	-451.2520141601562	-1023.422790527344	47.78520584106445	-546.2192993164062	-1193.8291015625	47.50726318359375	-554.8231811523438	-1153.140747070312	486.6800231933594	-287.9093322753906	-1148.339721679688	747.1016235351562	-257.8453979492188	-1232.89990234375	49.08271408081055	-328.2483215332031	-1155.053588867188	339.7665405273438	-297.0349426269531	-1031.553588867188	49.7556037902832	-308.48193359375	-1082.509399414062	52.29922866821289	-363.9678649902344	-1130.368530273438	45.42342376708984	-279.1167602539062	-1268.307983398438	42.9575080871582	-390.1325988769531	
